<svg width="524" height="581" viewBox="0 0 524 581" fill="none" xmlns="http://www.w3.org/2000/svg">
<g filter="url(#filter0_d_3185_633)">
<path d="M167.957 41.1367H173.063L176.184 41.9878L180.723 43.6899L183.276 45.6758L185.262 47.6616L187.815 51.917L190.368 63.2646L191.787 70.6406L194.624 81.9883L197.177 90.7827L199.446 97.5913L201.716 103.549L204.269 109.506L206.539 114.045L209.375 119.152L213.347 125.109L215.9 128.514L218.454 131.351L220.439 133.62L221.291 134.188V134.755L222.425 135.322L224.411 137.308L227.248 139.578L231.503 142.698L237.461 146.386L245.121 150.358L251.078 152.911L258.454 155.748L269.802 159.152L277.461 161.138L287.391 163.408L297.887 165.677L302.994 167.096L306.114 168.798L308.951 171.351L310.653 173.621L312.072 177.025L312.923 180.713V187.521L312.072 190.926L309.802 195.181L307.533 197.734L304.412 199.72L298.455 201.706L290.795 203.408L278.88 205.961L267.249 209.082L258.17 211.919L249.092 215.323L245.404 217.025L239.447 219.862L234.624 222.699L230.936 225.252L225.546 229.224L221.858 232.628L216.751 237.735L214.482 240.572L212.496 243.409L210.51 246.529L208.808 249.083L206.539 253.338L203.985 258.161L201.716 263.551L199.446 269.225L196.326 278.87L193.205 290.501L190.652 301.849L188.099 314.048L186.396 317.168L183.843 320.289L181.006 322.842L176.467 325.112L173.914 325.963H165.971L163.417 325.112L159.446 323.126L156.609 320.573L154.339 317.736L152.637 312.346L150.935 305.253L147.247 288.799L144.978 280.289L141.29 268.657L137.885 260.43L134.765 253.622L131.928 248.799L128.523 243.409L125.687 240.004L123.417 237.167L120.296 233.763L117.743 231.21L109.232 224.401L102.14 220.146L97.8848 217.876L87.9556 213.621L77.7427 210.217L69.2319 207.664L59.019 205.11L45.4019 202.273L38.3096 200.571L35.4727 199.153L32.3521 196.316L30.3662 193.479L28.6641 189.507L28.0967 186.103V181.28L28.9478 177.592L30.6499 174.188L33.2031 171.067L36.3237 168.514L39.1606 166.812L43.9834 165.394L57.0332 162.557L66.6787 160.287L74.6221 158.018L84.835 154.613L91.6436 152.06L98.4521 148.939L104.977 145.535L109.8 142.415L114.623 138.727L118.311 135.606L122.85 131.067L125.403 127.946L128.523 123.975L131.077 120.003L133.63 115.748L135.899 111.492L138.453 106.102L141.006 99.5771L144.41 89.3643L146.396 82.5557L148.098 75.7471L150.084 66.9526L152.637 55.0376L153.772 51.6333L155.474 48.229L157.46 45.9595L160.297 43.9736L163.134 42.5552L167.957 41.1367Z" fill="white"/>
<path d="M276.61 351.777H279.731L284.554 352.628L288.809 354.331L291.362 356.033L293.632 358.302L295.618 361.707L298.171 370.785L299.873 378.161L301.859 385.537L304.412 393.764L307.249 400.572L309.519 405.111L312.072 409.65L314.909 413.338L318.029 416.743L318.597 417.877L319.731 418.445L321.717 420.431L326.824 424.119L330.228 426.104L335.618 428.658L340.441 430.644L350.086 433.764L358.881 436.034L365.973 437.736L371.647 439.154L375.619 441.424L379.023 444.544L381.009 447.381L382.711 450.502L383.278 452.771V460.431L382.144 464.403L380.158 467.523L377.604 470.36L374.768 472.346L370.229 474.048L354.342 478.02L344.129 480.857L336.753 483.694L332.498 485.68L327.958 488.233L324.554 490.502L320.866 493.339L316.327 497.595L313.207 501.566L310.086 506.673L307.816 510.928L304.696 518.304L301.575 528.233L298.455 540.148L296.752 547.241L295.05 552.347L292.497 555.468L289.66 558.021L287.107 559.723L284.27 560.574L282 560.858H276.327L271.788 560.007L269.802 559.156L267.249 557.17L263.561 553.482L261.858 550.645L259.305 540.432L256.752 530.503L254.199 521.708L251.929 515.467L248.241 507.524L246.255 504.12L243.418 500.148L240.865 497.027L237.461 493.623L234.34 491.07L230.085 488.233L224.411 485.112L215.9 481.708L209.092 479.438L191.219 474.899L185.829 473.481L182.708 472.346L180.155 470.36L177.886 468.091L175.9 464.687L174.765 461.282L174.481 459.296V452.771L175.333 449.083L177.035 446.247L178.737 443.693L181.574 441.424L184.978 439.438L196.326 436.601L203.418 434.899L211.078 432.629L218.737 430.076L221.858 428.658L226.397 426.672L230.936 424.119L234.057 421.849L236.894 419.58L239.73 417.026L242.567 413.906L245.121 410.501L247.674 406.53L249.943 401.991L251.646 398.303L253.915 392.345L256.468 384.118L259.873 370.501L261.858 362.841L264.128 358.586L266.114 356.316L268.951 354.331L272.922 352.628L276.61 351.777Z" fill="white"/>
<path d="M422.995 187.52H426.683L430.938 188.371L435.478 190.073L438.598 192.342L440.868 195.179L442.286 198.3L444.839 208.796L446.258 215.605L448.244 222.697L451.364 230.357L454.201 235.747L457.038 239.719L460.159 243.123L464.13 246.244L467.818 248.513L472.357 250.783L479.45 253.336L489.663 255.889L500.159 258.159L504.698 259.861L507.535 261.563L509.521 263.265L511.507 266.386L512.925 270.641L513.776 275.18L513.493 279.436L511.791 284.542L509.805 287.946L506.968 290.5L503.563 292.485L498.741 293.904L485.407 296.741L477.464 299.01L470.372 301.847L466.116 304.117L461.293 307.521L460.159 308.656H459.591L459.024 309.791L458.173 310.074V310.642H457.605L457.038 311.776L453.634 316.599L451.364 320.854L449.095 326.528L447.393 331.635L445.407 339.294L443.137 349.791L441.719 354.614L439.733 357.734L438.031 359.72L434.059 362.273L430.371 363.692L427.534 364.259H423.279L418.456 363.125L413.917 360.855L411.364 358.869L409.378 355.749L408.243 353.479L405.69 343.55L403.988 335.89L402.002 328.514L399.732 322.557L396.896 316.883L394.059 312.911L391.222 309.791L389.803 308.372L387.25 306.103L382.995 303.266L378.456 300.996L373.917 299.294L363.987 296.457L349.519 293.336L346.115 292.202L342.994 290.5L340.441 287.663L338.171 283.407L337.037 279.436L336.753 277.45V273.762L338.171 268.372L339.874 264.967L342.427 262.13L345.547 259.861L350.086 258.159L357.462 256.457L363.987 255.038L371.363 253.052L379.023 250.215L384.413 247.378L388.385 244.542L392.073 241.137L395.477 237.449L396.328 235.747L397.463 234.329L398.881 230.357L400.3 228.087L401.151 225.25L402.286 222.414L404.839 213.052L406.257 205.392L408.243 198.3L410.513 194.044L413.35 191.208L416.754 189.222L421.293 187.803L422.995 187.52Z" fill="white"/>
<path d="M474.06 96.1719H481.719L485.124 97.0229L488.528 98.7251L491.932 102.129L493.634 104.683L495.053 108.654L495.62 111.491V115.463L494.769 119.151L492.783 123.123L489.095 126.811L486.542 128.796L483.421 130.499L480.017 131.066H474.911L471.79 130.499L469.237 129.08L466.4 127.094L463.847 124.825L461.861 121.988L460.442 118.867L459.875 116.598V108.654L462.145 104.115L464.414 101.278L467.535 98.1577L470.088 97.0229L474.06 96.1719Z" fill="white"/>
<path d="M60.1533 402.559H64.125L68.3804 403.41L72.3521 405.679L75.4727 408.232L78.0259 411.92L79.728 415.325L80.0117 416.743V424.687L77.7422 429.226L76.3237 431.495L74.0542 433.765L70.9336 435.467L68.3804 437.169L66.1108 438.02H59.0186L55.6143 437.169L52.7773 435.75L49.373 432.63L45.6851 427.523L44.5503 424.403L44.2666 422.417V418.445L45.1177 414.474L47.1035 410.502L49.9404 407.381L53.6284 404.828L57.3164 403.126L60.1533 402.559Z" fill="white"/>
<path d="M124.268 129.363L124.835 129.931L122.849 131.917L121.431 133.619L119.161 135.604L118.026 136.172L119.729 134.186L122.849 131.065L124.268 129.363Z" fill="white"/>
<path d="M407.392 201.137H408.243V203.974L407.675 204.825H407.108L406.824 203.406L407.392 201.137Z" fill="white"/>
<path d="M400.3 228.086H400.867L400.583 230.072L400.3 230.639L399.165 230.072L400.3 228.086Z" fill="white"/>
</g>
<defs>
<filter id="filter0_d_3185_633" x="-4" y="0" width="532" height="589" filterUnits="userSpaceOnUse" color-interpolation-filters="sRGB">
<feFlood flood-opacity="0" result="BackgroundImageFix"/>
<feColorMatrix in="SourceAlpha" type="matrix" values="0 0 0 0 0 0 0 0 0 0 0 0 0 0 0 0 0 0 127 0" result="hardAlpha"/>
<feOffset dy="4"/>
<feGaussianBlur stdDeviation="2"/>
<feComposite in2="hardAlpha" operator="out"/>
<feColorMatrix type="matrix" values="0 0 0 0 0 0 0 0 0 0 0 0 0 0 0 0 0 0 0.25 0"/>
<feBlend mode="normal" in2="BackgroundImageFix" result="effect1_dropShadow_3185_633"/>
<feBlend mode="normal" in="SourceGraphic" in2="effect1_dropShadow_3185_633" result="shape"/>
</filter>
</defs>
</svg>
