<svg width="32" height="32" viewBox="0 0 32 32" fill="none" xmlns="http://www.w3.org/2000/svg">
<path d="M27.5308 3.56561L17.5371 10.9881L19.3852 6.60893L27.5308 3.56561Z" fill="#E2761B"/>
<path fill-rule="evenodd" clip-rule="evenodd" d="M27.5754 3.54164C27.5873 3.56362 27.5813 3.59104 27.5612 3.60595L17.5675 11.0284C17.5493 11.0419 17.5243 11.0416 17.5065 11.0276C17.4887 11.0136 17.4825 10.9894 17.4913 10.9686L19.3393 6.58943C19.3447 6.5767 19.3551 6.56675 19.368 6.56191L27.5137 3.51859C27.5371 3.50984 27.5634 3.51967 27.5754 3.54164ZM19.4235 6.64842L17.6554 10.838L27.2165 3.73684L19.4235 6.64842Z" fill="#E2761B"/>
<path d="M4.45898 3.56558L14.3723 11.0584L12.6147 6.6089L4.45898 3.56558Z" fill="#E4761B"/>
<path fill-rule="evenodd" clip-rule="evenodd" d="M4.41538 3.54147C4.42738 3.51961 4.4536 3.50987 4.47696 3.51859L12.6326 6.56191C12.646 6.56688 12.6566 6.57727 12.6618 6.5905L14.4195 11.04C14.4278 11.0609 14.4211 11.0848 14.4032 11.0984C14.3852 11.112 14.3604 11.1121 14.3425 11.0985L4.42912 3.6057C4.40923 3.59067 4.40338 3.56332 4.41538 3.54147ZM4.76398 3.73289L14.2603 10.9105L12.5766 6.64819L4.76398 3.73289Z" fill="#E4761B"/>
<path d="M23.9341 20.7709L21.2725 24.8488L26.9674 26.4156L28.6045 20.8613L23.9341 20.7709Z" fill="#E4761B"/>
<path fill-rule="evenodd" clip-rule="evenodd" d="M23.8925 20.7435C23.9019 20.729 23.9182 20.7204 23.9355 20.7207L28.6059 20.8111C28.6216 20.8114 28.6362 20.819 28.6455 20.8316C28.6547 20.8443 28.6576 20.8605 28.6531 20.8755L27.016 26.4298C27.0082 26.4561 26.9809 26.4713 26.9545 26.4641L21.2596 24.8972C21.2441 24.8929 21.2316 24.8816 21.2259 24.8666C21.2202 24.8516 21.2221 24.8348 21.2308 24.8213L23.8925 20.7435ZM23.9614 20.8217L21.3525 24.8186L26.9336 26.3541L28.5382 20.9103L23.9614 20.8217Z" fill="#E4761B"/>
<path d="M3.4043 20.8613L5.03142 26.4156L10.7263 24.8488L8.06469 20.7709L3.4043 20.8613Z" fill="#E4761B"/>
<path fill-rule="evenodd" clip-rule="evenodd" d="M8.06413 20.7207C8.08143 20.7204 8.09769 20.729 8.10716 20.7435L10.7688 24.8213C10.7776 24.8348 10.7794 24.8516 10.7737 24.8666C10.768 24.8816 10.7555 24.8929 10.7401 24.8972L5.04515 26.4641C5.01872 26.4713 4.99134 26.4561 4.98364 26.4298L3.35652 20.8754C3.35212 20.8604 3.35497 20.8442 3.36423 20.8316C3.37349 20.819 3.3881 20.8114 3.40374 20.8111L8.06413 20.7207ZM3.47138 20.9103L5.06614 26.3541L10.6471 24.8186L8.03826 20.8217L3.47138 20.9103Z" fill="#E4761B"/>
<path d="M10.4053 13.8807L8.81836 16.2812L14.4731 16.5323L14.2722 10.4557L10.4053 13.8807Z" fill="#E4761B"/>
<path fill-rule="evenodd" clip-rule="evenodd" d="M14.2915 10.4096C14.3094 10.4173 14.3212 10.4347 14.3218 10.4541L14.5227 16.5307C14.5232 16.5447 14.5178 16.5582 14.5078 16.5681C14.4979 16.5779 14.4843 16.5831 14.4703 16.5825L8.81557 16.3314C8.7975 16.3306 8.78126 16.3202 8.77305 16.3041C8.76484 16.2879 8.76593 16.2686 8.77591 16.2536L10.3628 13.8531C10.3653 13.8494 10.3682 13.8461 10.3714 13.8432L14.2384 10.4182C14.2529 10.4053 14.2736 10.4019 14.2915 10.4096ZM10.443 13.914L8.90857 16.235L14.4206 16.4798L14.225 10.5642L10.443 13.914Z" fill="#E4761B"/>
<path d="M21.5838 13.8808L17.6667 10.3855L17.5361 16.5324L23.1808 16.2813L21.5838 13.8808Z" fill="#E4761B"/>
<path fill-rule="evenodd" clip-rule="evenodd" d="M17.6471 10.3395C17.665 10.3316 17.6859 10.335 17.7006 10.348L21.6177 13.8433C21.6209 13.8462 21.6237 13.8494 21.6261 13.853L23.2231 16.2535C23.2331 16.2686 23.2342 16.2879 23.226 16.3041C23.2178 16.3202 23.2016 16.3307 23.1835 16.3315L17.5388 16.5826C17.5249 16.5832 17.5114 16.5781 17.5015 16.5683C17.4915 16.5586 17.486 16.5452 17.4863 16.5314L17.6169 10.3845C17.6173 10.3649 17.6291 10.3473 17.6471 10.3395ZM17.715 10.4956L17.5879 16.4799L23.0902 16.2351L21.546 13.914L17.715 10.4956Z" fill="#E4761B"/>
<path d="M10.7266 24.8487L14.1214 23.1915L11.1886 20.9015L10.7266 24.8487Z" fill="#E4761B"/>
<path fill-rule="evenodd" clip-rule="evenodd" d="M11.1687 20.8551C11.1854 20.8481 11.2046 20.8507 11.2189 20.8619L14.1518 23.1519C14.1654 23.1626 14.1726 23.1795 14.1708 23.1967C14.169 23.2139 14.1584 23.229 14.1429 23.2366L10.748 24.8939C10.7315 24.9019 10.7119 24.9003 10.697 24.8897C10.682 24.8791 10.674 24.8611 10.6761 24.8429L11.1381 20.8956C11.1403 20.8776 11.1519 20.8621 11.1687 20.8551ZM11.2275 20.996L10.7866 24.7633L14.0266 23.1816L11.2275 20.996Z" fill="#E4761B"/>
<path d="M17.8682 23.1915L21.2731 24.8487L20.801 20.9015L17.8682 23.1915Z" fill="#E4761B"/>
<path fill-rule="evenodd" clip-rule="evenodd" d="M20.8197 20.8551C20.8365 20.8621 20.8481 20.8775 20.8503 20.8955L21.3224 24.8428C21.3245 24.861 21.3166 24.879 21.3016 24.8897C21.2866 24.9003 21.267 24.9019 21.2505 24.8939L17.8456 23.2366C17.83 23.2291 17.8195 23.214 17.8177 23.1968C17.8158 23.1795 17.823 23.1626 17.8367 23.1519L20.7695 20.8619C20.7838 20.8507 20.803 20.8481 20.8197 20.8551ZM17.9619 23.1816L21.2117 24.7633L20.7611 20.9959L17.9619 23.1816Z" fill="#E4761B"/>
<path d="M21.273 24.8488L17.8682 23.1916L18.1394 25.4113L18.1092 26.3454L21.273 24.8488Z" fill="#D7C1B3"/>
<path fill-rule="evenodd" clip-rule="evenodd" d="M17.8394 23.1507C17.8544 23.14 17.874 23.1383 17.8906 23.1464L21.2954 24.8036C21.3128 24.8121 21.3238 24.8298 21.3237 24.8491C21.3236 24.8684 21.3124 24.8859 21.2949 24.8942L18.1311 26.3907C18.1153 26.3982 18.0967 26.3969 18.0821 26.3873C18.0675 26.3777 18.0589 26.3612 18.0594 26.3437L18.0894 25.4135L17.8187 23.1976C17.8165 23.1794 17.8244 23.1614 17.8394 23.1507ZM17.9296 23.2771L18.1896 25.4052C18.1899 25.4077 18.19 25.4103 18.19 25.4129L18.1625 26.2648L21.1574 24.8482L17.9296 23.2771Z" fill="#D7C1B3"/>
<path d="M10.7266 24.8488L13.8904 26.3454L13.8703 25.4113L14.1214 23.1916L10.7266 24.8488Z" fill="#D7C1B3"/>
<path fill-rule="evenodd" clip-rule="evenodd" d="M14.1508 23.1505C14.1658 23.1611 14.1738 23.179 14.1717 23.1972L13.921 25.4136L13.941 26.3443C13.9414 26.3617 13.9327 26.378 13.9181 26.3875C13.9035 26.397 13.8851 26.3982 13.8693 26.3907L10.7055 24.8942C10.6881 24.8859 10.6769 24.8684 10.6768 24.8491C10.6766 24.8298 10.6876 24.8121 10.7049 24.8037L14.0998 23.1464C14.1163 23.1384 14.1358 23.1399 14.1508 23.1505ZM10.8429 24.8481L13.8389 26.2652L13.8205 25.4123C13.8205 25.4101 13.8206 25.4078 13.8208 25.4056L14.0616 23.2768L10.8429 24.8481Z" fill="#D7C1B3"/>
<path d="M13.9418 19.4351L11.1094 18.6014L13.1081 17.6874L13.9418 19.4351Z" fill="#233447"/>
<path fill-rule="evenodd" clip-rule="evenodd" d="M13.0867 17.6418C13.1116 17.6304 13.1411 17.6411 13.1529 17.6658L13.9865 19.4135C13.9951 19.4314 13.9923 19.4526 13.9794 19.4677C13.9666 19.4828 13.946 19.4889 13.927 19.4833L11.0946 18.6496C11.0745 18.6437 11.0602 18.6259 11.0587 18.605C11.0572 18.5841 11.0689 18.5645 11.0879 18.5558L13.0867 17.6418ZM11.2519 18.5912L13.8474 19.3551L13.0835 17.7537L11.2519 18.5912Z" fill="#233447"/>
<path d="M18.0488 19.4351L18.8825 17.6874L20.8913 18.6014L18.0488 19.4351Z" fill="#233447"/>
<path fill-rule="evenodd" clip-rule="evenodd" d="M18.8376 17.6658C18.8494 17.6411 18.8788 17.6304 18.9037 17.6417L20.9125 18.5557C20.9316 18.5644 20.9433 18.5841 20.9418 18.605C20.9403 18.6259 20.9259 18.6437 20.9058 18.6496L18.0634 19.4833C18.0444 19.4889 18.0239 19.4827 18.011 19.4677C17.9982 19.4526 17.9954 19.4314 18.0039 19.4135L18.8376 17.6658ZM18.907 17.7536L18.143 19.3553L20.748 18.5912L18.907 17.7536Z" fill="#233447"/>
<path d="M10.7271 24.8488L11.2092 20.771L8.06543 20.8614L10.7271 24.8488Z" fill="#CD6116"/>
<path fill-rule="evenodd" clip-rule="evenodd" d="M11.2467 20.7371C11.2565 20.7478 11.2612 20.7624 11.2595 20.7768L10.7774 24.8547C10.7749 24.8756 10.7597 24.8927 10.7392 24.8976C10.7188 24.9025 10.6974 24.8942 10.6857 24.8767L8.02408 20.8892C8.01393 20.874 8.01284 20.8545 8.02122 20.8383C8.02961 20.8221 8.04614 20.8117 8.0644 20.8111L11.2082 20.7208C11.2228 20.7203 11.2368 20.7263 11.2467 20.7371ZM8.15799 20.9089L10.6936 24.7076L11.1529 20.8228L8.15799 20.9089Z" fill="#CD6116"/>
<path d="M20.791 20.771L21.2731 24.8488L23.9348 20.8614L20.791 20.771Z" fill="#CD6116"/>
<path fill-rule="evenodd" clip-rule="evenodd" d="M20.7544 20.7371C20.7642 20.7263 20.7783 20.7203 20.7929 20.7208L23.9366 20.8111C23.9549 20.8117 23.9714 20.8221 23.9798 20.8383C23.9882 20.8545 23.9871 20.874 23.977 20.8892L21.3153 24.8767C21.3036 24.8942 21.2823 24.9025 21.2618 24.8976C21.2414 24.8927 21.2261 24.8756 21.2237 24.8547L20.7416 20.7768C20.7398 20.7624 20.7445 20.7478 20.7544 20.7371ZM20.8481 20.8228L21.3074 24.7076L23.843 20.9089L20.8481 20.8228Z" fill="#CD6116"/>
<path d="M23.1818 16.2813L17.5371 16.5324L18.0594 19.4351L18.893 17.6874L20.9018 18.6014L23.1818 16.2813Z" fill="#CD6116"/>
<path fill-rule="evenodd" clip-rule="evenodd" d="M23.2281 16.2608C23.2365 16.2797 23.2325 16.3017 23.218 16.3165L20.9381 18.6366C20.9233 18.6517 20.9007 18.6559 20.8814 18.6471L18.9175 17.7536L18.1051 19.4567C18.0957 19.4764 18.0747 19.4877 18.0531 19.4848C18.0315 19.4819 18.0142 19.4654 18.0104 19.444L17.4881 16.5413C17.4855 16.527 17.4892 16.5123 17.4983 16.501C17.5073 16.4897 17.5208 16.4828 17.5353 16.4822L23.18 16.2311C23.2006 16.2302 23.2197 16.242 23.2281 16.2608ZM17.5971 16.58L18.0816 19.2727L18.8481 17.6658C18.8599 17.6411 18.8893 17.6304 18.9143 17.6417L20.8911 18.5412L23.0569 16.3371L17.5971 16.58Z" fill="#CD6116"/>
<path d="M11.1094 18.6014L13.1181 17.6874L13.9417 19.4351L14.4741 16.5324L8.81934 16.2813L11.1094 18.6014Z" fill="#CD6116"/>
<path fill-rule="evenodd" clip-rule="evenodd" d="M8.77288 16.2609C8.78127 16.242 8.80037 16.2302 8.821 16.2311L14.4757 16.4822C14.4902 16.4828 14.5038 16.4897 14.5128 16.5011C14.5218 16.5124 14.5255 16.5271 14.5229 16.5414L13.9906 19.4441C13.9866 19.4656 13.9693 19.4821 13.9477 19.4849C13.926 19.4877 13.9051 19.4762 13.8958 19.4565L13.0933 17.7537L11.1296 18.6471C11.1104 18.6559 11.0878 18.6517 11.0731 18.6367L8.78303 16.3165C8.76852 16.3018 8.76449 16.2798 8.77288 16.2609ZM8.94446 16.3371L11.1199 18.5412L13.0968 17.6417C13.1218 17.6303 13.1513 17.6412 13.163 17.666L13.92 19.2723L14.4137 16.58L8.94446 16.3371Z" fill="#CD6116"/>
<path d="M8.81836 16.2813L11.1887 20.9015L11.1084 18.6014L8.81836 16.2813Z" fill="#E4751F"/>
<path fill-rule="evenodd" clip-rule="evenodd" d="M8.78934 16.2406C8.80942 16.2261 8.83711 16.2283 8.85452 16.246L11.1445 18.5661C11.1534 18.5751 11.1585 18.5871 11.159 18.5997L11.2393 20.8997C11.2402 20.9232 11.2246 20.9442 11.2018 20.9501C11.179 20.956 11.1552 20.9453 11.1445 20.9244L8.7741 16.3042C8.76278 16.2821 8.76925 16.2551 8.78934 16.2406ZM9.0127 16.5492L11.1311 20.6783L11.0593 18.6228L9.0127 16.5492Z" fill="#E4751F"/>
<path d="M20.9022 18.6014L20.8018 20.9015L23.1822 16.2813L20.9022 18.6014Z" fill="#E4751F"/>
<path fill-rule="evenodd" clip-rule="evenodd" d="M23.211 16.2406C23.2312 16.2551 23.2376 16.2822 23.2263 16.3043L20.8458 20.9245C20.835 20.9455 20.8111 20.9561 20.7883 20.95C20.7655 20.944 20.75 20.9229 20.751 20.8993L20.8515 18.5992C20.852 18.5868 20.8571 18.5751 20.8658 18.5662L23.1458 16.2461C23.1632 16.2284 23.1909 16.226 23.211 16.2406ZM20.951 18.6229L20.8614 20.6751L22.9853 16.5527L20.951 18.6229Z" fill="#E4751F"/>
<path d="M14.4737 16.5324L13.9414 19.4351L14.6043 22.8601L14.755 18.3503L14.4737 16.5324Z" fill="#E4751F"/>
<path fill-rule="evenodd" clip-rule="evenodd" d="M14.4739 16.4822C14.4984 16.4825 14.5191 16.5005 14.5228 16.5247L14.804 18.3426C14.8045 18.3457 14.8047 18.3489 14.8046 18.352L14.6539 22.8617C14.6531 22.8873 14.6332 22.9081 14.6077 22.9101C14.5822 22.9121 14.5593 22.8947 14.5544 22.8696L13.8915 19.4446C13.8904 19.4385 13.8903 19.4322 13.8914 19.426L14.4238 16.5233C14.4282 16.4992 14.4494 16.4818 14.4739 16.4822ZM13.9919 19.4348L14.5684 22.4133L14.7041 18.3533L14.469 16.8337L13.9919 19.4348Z" fill="#E4751F"/>
<path d="M17.5378 16.5324L17.2666 18.3403L17.3871 22.8601L18.0601 19.4351L17.5378 16.5324Z" fill="#E4751F"/>
<path fill-rule="evenodd" clip-rule="evenodd" d="M17.5365 16.4822C17.5611 16.4818 17.5823 16.4993 17.5867 16.5235L18.1089 19.4262C18.11 19.4323 18.11 19.4386 18.1088 19.4447L17.4358 22.8697C17.4309 22.8948 17.4079 22.9122 17.3824 22.9101C17.3569 22.9079 17.337 22.887 17.3364 22.8614L17.2158 18.3416C17.2158 18.3387 17.2159 18.3357 17.2164 18.3328L17.4876 16.5249C17.4912 16.5006 17.5119 16.4825 17.5365 16.4822ZM17.5417 16.8409L17.3164 18.3434L17.4247 22.4056L18.0084 19.4347L17.5417 16.8409Z" fill="#E4751F"/>
<path d="M18.0597 19.4351L17.3867 22.86L17.8688 23.1915L20.8017 20.9015L20.9021 18.6014L18.0597 19.4351Z" fill="#F6851B"/>
<path fill-rule="evenodd" clip-rule="evenodd" d="M20.9325 18.5619C20.9453 18.5719 20.9524 18.5874 20.9517 18.6036L20.8513 20.9037C20.8506 20.9183 20.8436 20.932 20.832 20.941L17.8992 23.2311C17.8819 23.2446 17.8579 23.2453 17.8398 23.2329L17.3577 22.9014C17.3412 22.8901 17.333 22.87 17.3369 22.8504L18.0098 19.4254C18.0134 19.407 18.027 19.3921 18.045 19.3869L20.8874 18.5532C20.9029 18.5486 20.9197 18.5519 20.9325 18.5619ZM18.1025 19.4747L17.4418 22.8373L17.8664 23.1292L20.7519 20.8761L20.8483 18.6693L18.1025 19.4747Z" fill="#F6851B"/>
<path d="M11.1094 18.6014L11.1897 20.9015L14.1226 23.1915L14.6047 22.86L13.9418 19.4351L11.1094 18.6014Z" fill="#F6851B"/>
<path fill-rule="evenodd" clip-rule="evenodd" d="M11.078 18.5617C11.0908 18.5518 11.1075 18.5487 11.123 18.5532L13.9554 19.3869C13.9734 19.3922 13.9869 19.4071 13.9905 19.4255L14.6534 22.8505C14.6572 22.8701 14.649 22.8901 14.6326 22.9014L14.1504 23.2329C14.1324 23.2453 14.1084 23.2446 14.0911 23.2311L11.1583 20.941C11.1466 20.9319 11.1395 20.9181 11.139 20.9032L11.0586 18.6032C11.0581 18.587 11.0653 18.5716 11.078 18.5617ZM11.1614 18.6692L11.2385 20.8763L14.1239 23.1292L14.5485 22.8373L13.8977 19.4746L11.1614 18.6692Z" fill="#F6851B"/>
<path d="M18.1098 26.3453L18.14 25.4112L17.8889 25.1903H14.1023L13.8713 25.4112L13.8914 26.3453L10.7275 24.8488L11.8324 25.7527L14.0722 27.3096H17.919L20.1688 25.7527L21.2737 24.8488L18.1098 26.3453Z" fill="#C0AD9E"/>
<path fill-rule="evenodd" clip-rule="evenodd" d="M10.6845 24.8219C10.6981 24.8005 10.7255 24.7925 10.7485 24.8034L13.8389 26.2652L13.8205 25.4123C13.8202 25.3982 13.8258 25.3847 13.836 25.3749L14.067 25.154C14.0764 25.145 14.0888 25.14 14.1017 25.14H17.8883C17.9005 25.14 17.9123 25.1445 17.9215 25.1525L18.1726 25.3735C18.1839 25.3834 18.1901 25.3978 18.1896 25.4128L18.1621 26.2647L21.2517 24.8034C21.2746 24.7925 21.302 24.8005 21.3156 24.8219C21.3291 24.8434 21.3246 24.8715 21.3049 24.8876L20.2001 25.7916C20.1991 25.7924 20.198 25.7932 20.1969 25.794L17.947 27.3508C17.9386 27.3566 17.9287 27.3597 17.9184 27.3597H14.0716C14.0614 27.3597 14.0514 27.3566 14.043 27.3508L11.8032 25.7939C11.8021 25.7932 11.801 25.7924 11.8 25.7916L10.6952 24.8876C10.6755 24.8715 10.671 24.8434 10.6845 24.8219ZM11.0759 25.0694L11.8621 25.7126L14.0874 27.2593H17.9028L20.1381 25.7126L20.9242 25.0694L18.1308 26.3907C18.1149 26.3982 18.0964 26.3969 18.0817 26.3873C18.0671 26.3777 18.0585 26.3612 18.0591 26.3437L18.0885 25.4333L17.8694 25.2405H14.1219L13.9214 25.4322L13.941 26.3442C13.9414 26.3616 13.9327 26.378 13.9181 26.3874C13.9035 26.3969 13.8851 26.3981 13.8694 26.3907L11.0759 25.0694Z" fill="#C0AD9E"/>
<path d="M17.8686 23.1914L17.3865 22.8599H14.6043L14.1222 23.1914L13.8711 25.4111L14.1021 25.1901H17.8887L18.1398 25.4111L17.8686 23.1914Z" fill="#161616"/>
<path fill-rule="evenodd" clip-rule="evenodd" d="M14.5763 22.8185C14.5846 22.8128 14.5946 22.8097 14.6047 22.8097H17.3869C17.397 22.8097 17.407 22.8128 17.4153 22.8185L17.8974 23.15C17.9093 23.1581 17.9171 23.171 17.9188 23.1853L18.19 25.405C18.1926 25.4257 18.182 25.4458 18.1636 25.4555C18.1452 25.4652 18.1227 25.4626 18.107 25.4488L17.8701 25.2403H14.1227L13.9062 25.4474C13.8909 25.462 13.8682 25.4655 13.8492 25.4561C13.8303 25.4467 13.8192 25.4265 13.8216 25.4055L14.0727 23.1857C14.0743 23.1713 14.0822 23.1582 14.0942 23.15L14.5763 22.8185ZM14.6203 22.9101L14.1699 23.2198L13.937 25.279L14.0678 25.1538C14.0772 25.1449 14.0896 25.1399 14.1025 25.1399H17.8891C17.9013 25.1399 17.9131 25.1444 17.9223 25.1524L18.0743 25.2863L17.8219 23.2199L17.3713 22.9101H14.6203Z" fill="#161616"/>
<path d="M27.9523 11.4702L28.806 7.37227L27.5304 3.56561L17.8682 10.737L21.5844 13.8807L26.8374 15.4175L28.0025 14.0615L27.5003 13.6999L28.3038 12.9667L27.6811 12.4846L28.4846 11.872L27.9523 11.4702Z" fill="#763D16"/>
<path fill-rule="evenodd" clip-rule="evenodd" d="M27.5459 3.51769C27.5613 3.52251 27.5734 3.53439 27.5785 3.54964L28.854 7.3563C28.8569 7.36474 28.8574 7.37378 28.8556 7.3825L28.0084 11.4493L28.5153 11.8319C28.5278 11.8413 28.5352 11.8561 28.5352 11.8718C28.5353 11.8875 28.528 11.9023 28.5155 11.9119L27.7639 12.4849L28.335 12.927C28.3467 12.9361 28.3538 12.9499 28.3544 12.9647C28.355 12.9795 28.349 12.9938 28.3381 13.0038L27.5803 13.6953L28.0323 14.0208C28.0437 14.029 28.0511 14.0416 28.0528 14.0556C28.0544 14.0695 28.0502 14.0836 28.041 14.0942L26.8759 15.4502C26.8631 15.4651 26.8426 15.4712 26.8237 15.4656L21.5707 13.9289C21.564 13.927 21.5578 13.9236 21.5524 13.9191L17.8361 10.7753C17.8244 10.7654 17.8179 10.7507 17.8184 10.7354C17.8189 10.72 17.8263 10.7058 17.8386 10.6966L27.5009 3.52527C27.5138 3.51569 27.5306 3.51287 27.5459 3.51769ZM17.9494 10.7395L21.6091 13.8355L26.8208 15.3602L27.9292 14.0703L27.4714 13.7407C27.4591 13.7318 27.4515 13.7179 27.4506 13.7028C27.4497 13.6877 27.4557 13.673 27.4669 13.6628L28.2263 12.9699L27.6508 12.5243C27.6384 12.5148 27.6312 12.5 27.6313 12.4844C27.6313 12.4688 27.6387 12.4541 27.6511 12.4447L28.4019 11.8721L27.9224 11.5103C27.9069 11.4986 27.8996 11.479 27.9035 11.4599L28.7545 7.37532L27.5052 3.64717L17.9494 10.7395Z" fill="#763D16"/>
<path d="M3.19336 7.37227L4.04709 11.4702L3.50472 11.872L4.30824 12.4846L3.69556 12.9667L4.49907 13.6999L3.99687 14.0615L5.15193 15.4175L10.4049 13.8807L14.1212 10.737L4.4589 3.56561L3.19336 7.37227Z" fill="#763D16"/>
<path fill-rule="evenodd" clip-rule="evenodd" d="M4.4442 3.51771C4.45956 3.51286 4.47631 3.51568 4.48924 3.52527L14.1515 10.6966C14.1638 10.7058 14.1713 10.72 14.1718 10.7354C14.1723 10.7507 14.1657 10.7654 14.154 10.7753L10.4378 13.9191C10.4324 13.9236 10.4262 13.927 10.4194 13.9289L5.16644 15.4656C5.14744 15.4712 5.12695 15.4651 5.11411 15.45L3.95906 14.0941C3.94996 14.0834 3.94575 14.0694 3.94743 14.0555C3.94912 14.0415 3.95656 14.029 3.96795 14.0208L4.41994 13.6953L3.66212 13.0038C3.65122 12.9939 3.64525 12.9796 3.64579 12.9649C3.64632 12.9501 3.65332 12.9364 3.66492 12.9273L4.22665 12.4852L3.47469 11.9119C3.46213 11.9023 3.45481 11.8874 3.45492 11.8716C3.45503 11.8558 3.46256 11.841 3.47524 11.8316L3.99179 11.449L3.14461 7.3825C3.1428 7.37382 3.14332 7.36482 3.14612 7.35641L4.41166 3.54976C4.41674 3.53447 4.42884 3.52256 4.4442 3.51771ZM4.48508 3.64727L3.2457 7.37526L4.09667 11.4599C4.10067 11.4791 4.09315 11.4989 4.0774 11.5105L3.58872 11.8725L4.3391 12.4447C4.35145 12.4541 4.35875 12.4687 4.35887 12.4842C4.35899 12.4998 4.35191 12.5145 4.33971 12.5241L3.77358 12.9696L4.53334 13.6628C4.54451 13.673 4.5505 13.6877 4.54962 13.7028C4.54875 13.7179 4.54111 13.7318 4.52883 13.7407L4.07086 14.0704L5.16947 15.3601L10.381 13.8355L14.0408 10.7395L4.48508 3.64727Z" fill="#763D16"/>
<path d="M26.8382 15.4175L21.5852 13.8808L23.1822 16.2813L20.8018 20.9015L23.9355 20.8613H28.6059L26.8382 15.4175Z" fill="#F6851B"/>
<path fill-rule="evenodd" clip-rule="evenodd" d="M21.5442 13.851C21.5567 13.834 21.5785 13.8266 21.5987 13.8325L26.8517 15.3693C26.8676 15.3739 26.8802 15.3861 26.8854 15.4019L28.6531 20.8458C28.6581 20.861 28.6554 20.8778 28.646 20.8908C28.6365 20.9038 28.6214 20.9115 28.6053 20.9115H23.9349L20.8018 20.9517C20.7842 20.9519 20.7678 20.9429 20.7585 20.9279C20.7492 20.9129 20.7485 20.8941 20.7566 20.8784L23.1234 16.2845L21.5428 13.9085C21.5311 13.891 21.5317 13.868 21.5442 13.851ZM21.7027 13.9676L23.2234 16.2534C23.2335 16.2686 23.2346 16.288 23.2263 16.3042L20.8841 20.8502L23.9349 20.811L28.5362 20.811L26.798 15.4582L21.7027 13.9676Z" fill="#F6851B"/>
<path d="M10.4049 13.8808L5.15194 15.4175L3.4043 20.8613H8.06469L11.1884 20.9015L8.81798 16.2813L10.4049 13.8808Z" fill="#F6851B"/>
<path fill-rule="evenodd" clip-rule="evenodd" d="M10.4458 13.8509C10.4583 13.8679 10.4589 13.8908 10.4472 13.9084L8.87648 16.2844L11.2335 20.8785C11.2415 20.8942 11.2407 20.9129 11.2315 20.9279C11.2222 20.9429 11.2057 20.9519 11.1881 20.9517L8.0651 20.9115H3.40471C3.38867 20.9115 3.37359 20.9038 3.36414 20.8909C3.35468 20.8779 3.35199 20.8612 3.3569 20.8459L5.10454 15.4021C5.10964 15.3862 5.12227 15.3739 5.13826 15.3693L10.3912 13.8325C10.4115 13.8266 10.4332 13.834 10.4458 13.8509ZM5.19203 15.4582L3.47358 20.811H8.06575L11.106 20.8502L8.77372 16.3042C8.76544 16.288 8.7665 16.2687 8.7765 16.2535L10.2878 13.9674L5.19203 15.4582Z" fill="#F6851B"/>
<path d="M17.5368 16.5323L17.8682 10.7369L19.3949 6.60889H12.6152L14.1218 10.7369L14.4734 16.5323L14.5939 18.3603L14.6039 22.86H17.3861L17.4062 18.3603L17.5368 16.5323Z" fill="#F6851B"/>
<path fill-rule="evenodd" clip-rule="evenodd" d="M12.5745 6.58009C12.5839 6.56666 12.5993 6.55865 12.6156 6.55865H19.3953C19.4117 6.55865 19.4271 6.56669 19.4365 6.58018C19.4459 6.59366 19.4481 6.61088 19.4424 6.62629L17.9183 10.7473L17.5873 16.5352L17.5873 16.5359L17.4568 18.3622L17.4367 22.8602C17.4366 22.8878 17.4142 22.9102 17.3865 22.9102H14.6043C14.5767 22.9102 14.5542 22.8878 14.5541 22.8601L14.5441 18.362L14.4237 16.5356L14.4237 16.5353L14.0726 10.7473L12.5685 6.62609C12.5629 6.61069 12.5651 6.59352 12.5745 6.58009ZM12.6874 6.65909L14.1694 10.7197C14.1711 10.7243 14.1721 10.7291 14.1724 10.7339L14.5239 16.529L14.5239 16.5292L14.6444 18.357C14.6445 18.358 14.6445 18.3591 14.6445 18.3602L14.6545 22.8098H17.3365L17.3564 18.3601C17.3564 18.3589 17.3564 18.3578 17.3565 18.3567L17.487 16.5294L17.4871 16.5287L17.8185 10.7341C17.8188 10.7291 17.8198 10.7242 17.8215 10.7195L19.3232 6.65909H12.6874Z" fill="#F6851B"/>
</svg>
